<?xml version="1.0" encoding="UTF-8" standalone="no"?>
<!DOCTYPE svg PUBLIC "-//W3C//DTD SVG 1.1//EN" "http://www.w3.org/Graphics/SVG/1.1/DTD/svg11.dtd">
<svg version="1.1" xmlns="http://www.w3.org/2000/svg" xmlns:xlink="http://www.w3.org/1999/xlink" preserveAspectRatio="xMidYMid meet" viewBox="0 0 600 600" width="600" height="600"><defs><path d="M270.6 450.25C284.96 431.95 271.37 415.93 251.82 431.45C201.58 463.88 133.2 475 78.81 445.42C17.32 414.68 -10.41 341.59 3.54 277.9C12.38 213.36 60.97 162.77 113.73 126.42C174.33 84.51 239.78 48.53 295.17 0C318.29 0.45 335.7 35.53 360.59 44.82C426.68 92.41 505 127.44 557.05 191.07C583.34 227.33 598.33 271.98 600 316.12C591.99 375.97 555.07 439.1 491.41 456.14C436.37 472.24 379.75 451.82 331.79 425.85C325.93 424.63 304.44 408.27 312.96 420.99C341.63 477.87 373.05 534.35 418.54 580.54C421.22 586.37 442.19 600.22 431.03 600C337.61 600 244.19 600 150.78 600C160.76 592.41 170.74 584.81 180.73 577.22C180.73 577.22 180.73 577.22 180.73 577.22C224.98 523.17 254.94 480.85 270.6 450.25Z" id="baCniVP1bs"></path></defs><g><g><g><use xlink:href="#baCniVP1bs" opacity="1" fill="#7f00ff" fill-opacity="1"></use><g><use xlink:href="#baCniVP1bs" opacity="1" fill-opacity="0" stroke="#000000" stroke-width="1" stroke-opacity="0"></use></g></g></g></g></svg>